<svg width="40" height="40" viewBox="0 0 40 40" fill="none" xmlns="http://www.w3.org/2000/svg">
<g filter="url(#filter0_d_5157_2822)">
<rect x="4" y="2" width="32" height="32" rx="16" fill="white"/>
<rect x="4.5" y="2.5" width="31" height="31" rx="15.5" stroke="#8C72AE"/>
<path d="M13.4875 19.3867L19.1344 24.6586C19.3688 24.8773 19.6781 24.9992 20 24.9992C20.3219 24.9992 20.6313 24.8773 20.8656 24.6586L26.5125 19.3867C27.4625 18.5023 28 17.2617 28 15.9648V15.7836C28 13.5992 26.4219 11.7367 24.2688 11.3773C22.8438 11.1398 21.3938 11.6054 20.375 12.6242L20 12.9992L19.625 12.6242C18.6062 11.6054 17.1562 11.1398 15.7313 11.3773C13.5781 11.7367 12 13.5992 12 15.7836V15.9648C12 17.2617 12.5375 18.5023 13.4875 19.3867Z" fill="#8C72AE"/>
</g>
<defs>
<filter id="filter0_d_5157_2822" x="0" y="0" width="40" height="40" filterUnits="userSpaceOnUse" color-interpolation-filters="sRGB">
<feFlood flood-opacity="0" result="BackgroundImageFix"/>
<feColorMatrix in="SourceAlpha" type="matrix" values="0 0 0 0 0 0 0 0 0 0 0 0 0 0 0 0 0 0 127 0" result="hardAlpha"/>
<feOffset dy="2"/>
<feGaussianBlur stdDeviation="2"/>
<feComposite in2="hardAlpha" operator="out"/>
<feColorMatrix type="matrix" values="0 0 0 0 0.121569 0 0 0 0 0.121569 0 0 0 0 0.137255 0 0 0 0.1 0"/>
<feBlend mode="normal" in2="BackgroundImageFix" result="effect1_dropShadow_5157_2822"/>
<feBlend mode="normal" in="SourceGraphic" in2="effect1_dropShadow_5157_2822" result="shape"/>
</filter>
</defs>
</svg>
