<svg width="10" height="10" viewBox="0 0 10 10" fill="none" xmlns="http://www.w3.org/2000/svg">
<path d="M4.53711 9.75C3.51758 8.49609 1.25 5.45703 1.25 3.75C1.25 1.67891 2.92891 0 5 0C7.07031 0 8.75 1.67891 8.75 3.75C8.75 5.45703 6.46484 8.49609 5.46289 9.75C5.22266 10.0488 4.77734 10.0488 4.53711 9.75ZM7.51367 4.86719C7.72461 4.36719 7.8125 3.99219 7.8125 3.75C7.8125 2.19727 6.55273 0.9375 5 0.9375C3.44727 0.9375 2.1875 2.19727 2.1875 3.75C2.1875 3.99219 2.2752 4.36719 2.48633 4.86719C2.69102 5.35156 2.98164 5.88672 3.31641 6.42773C3.87109 7.33008 4.51562 8.18555 5 8.82227C5.48438 8.18555 6.12891 7.33008 6.68359 6.42773C7.01758 5.88672 7.30859 5.35156 7.51367 4.86719Z" fill="#FF5A1F"/>
</svg>
