<svg width="48" height="48" viewBox="0 0 48 48" fill="none" xmlns="http://www.w3.org/2000/svg">
<rect width="48" height="48" rx="24" fill="url(#paint0_linear_2281_3977)"/>
<path d="M32.3299 28.5005L27.8285 23.9996L32.3285 19.4991C32.418 19.4095 32.4682 19.2881 32.4682 19.1615C32.4682 19.0349 32.418 18.9135 32.3285 18.824L29.1761 15.6709C29.0865 15.5813 28.9651 15.531 28.8384 15.531C28.7118 15.531 28.5903 15.5813 28.5007 15.6709L24 20.1713L19.5 15.6709C19.321 15.4916 19.0039 15.4916 18.8246 15.6709L15.6715 18.8235C15.582 18.9131 15.5317 19.0345 15.5317 19.1612C15.5317 19.2878 15.582 19.4093 15.6715 19.4989L20.1722 23.9996L15.6708 28.5008C15.5814 28.5904 15.5312 28.7119 15.5312 28.8385C15.5312 28.9651 15.5814 29.0865 15.6708 29.1761L18.8234 32.329C18.913 32.4186 19.0345 32.4689 19.1611 32.4689C19.2878 32.4689 19.4092 32.4186 19.4988 32.329L24 27.8278L28.5014 32.3288C28.5948 32.4219 28.7165 32.4687 28.8391 32.4687C28.9618 32.4687 29.0837 32.4219 29.177 32.3288L32.3302 29.1759C32.4197 29.0863 32.4699 28.9648 32.4699 28.8382C32.4698 28.7115 32.4195 28.5901 32.3299 28.5005Z" fill="white"/>
<defs>
<linearGradient id="paint0_linear_2281_3977" x1="24" y1="48" x2="24" y2="0" gradientUnits="userSpaceOnUse">
<stop stop-color="#8C72AE"/>
<stop offset="1" stop-color="#873DE7"/>
</linearGradient>
</defs>
</svg>
